<svg width="32" height="32" viewBox="0 0 32 32" fill="none" xmlns="http://www.w3.org/2000/svg">
    <rect width="32" height="32" fill="#000000"/>
    <g opacity="0.95">
        <circle cx="10" cy="10" r="2.5" fill="#ffffff"/>
        <circle cx="16" cy="7" r="2" fill="#ffffff"/>
        <circle cx="22" cy="10" r="2.5" fill="#ffffff"/>
        <circle cx="12" cy="16" r="2" fill="#ffffff"/>
        <circle cx="20" cy="16" r="2" fill="#ffffff"/>
        <circle cx="10" cy="22" r="2.5" fill="#ffffff"/>
        <circle cx="16" cy="25" r="2" fill="#ffffff"/>
        <circle cx="22" cy="22" r="2.5" fill="#ffffff"/>
    </g>
    <g opacity="0.5" stroke="#ffffff" stroke-width="1.5" stroke-linecap="round">
        <line x1="10" y1="10" x2="16" y2="7"/>
        <line x1="16" y1="7" x2="22" y2="10"/>
        <line x1="10" y1="10" x2="12" y2="16"/>
        <line x1="22" y1="10" x2="20" y2="16"/>
        <line x1="12" y1="16" x2="16" y2="25"/>
        <line x1="20" y1="16" x2="16" y2="25"/>
        <line x1="10" y1="10" x2="10" y2="22"/>
        <line x1="22" y1="10" x2="22" y2="22"/>
        <line x1="10" y1="22" x2="16" y2="25"/>
        <line x1="22" y1="22" x2="16" y2="25"/>
        <line x1="12" y1="16" x2="20" y2="16"/>
        <line x1="16" y1="7" x2="12" y2="16"/>
        <line x1="16" y1="7" x2="20" y2="16"/>
    </g>
</svg>

